G04 ---------------------------- Layer name :TOP SILK LAYER*
G04 EasyEDA v5.6.15, Thu, 02 Aug 2018 18:58:32 GMT*
G04 5b09e127fb854e9390a9dbda6a4debf4*
G04 Gerber Generator version 0.2*
G04 Scale: 100 percent, Rotated: No, Reflected: No *
G04 Dimensions in inches *
G04 leading zeros omitted , absolute positions ,2 integer and 4 decimal *
%FSLAX24Y24*%
%MOIN*%
G90*
G70D02*

%ADD10C,0.010000*%
%ADD22C,0.003937*%
%ADD23C,0.004000*%
%ADD24C,0.008000*%
%ADD25C,0.007870*%
%ADD26C,0.010000*%
%ADD27C,0.007992*%
%ADD28C,0.007000*%

%LPD*%
G54D10*
G01X1150Y17623D02*
G01X1150Y18382D01*
G01X2450Y18382D01*
G01X2450Y18592D01*
G01X1150Y18592D01*
G01X1150Y18382D01*
G01X2450Y16994D02*
G01X2450Y16234D01*
G01X1150Y16234D01*
G01X1150Y16994D01*
G01X2450Y17623D02*
G01X2450Y18382D01*
G01X1500Y1300D02*
G01X6700Y1300D01*
G01X6700Y100D01*
G01X1500Y100D01*
G01X1500Y1300D01*
G01X2600Y1300D02*
G01X2600Y100D01*
G54D22*
G01X4664Y23129D02*
G01X4664Y10766D01*
G54D23*
G01X4664Y10766D02*
G01X11751Y10766D01*
G01X11751Y10766D02*
G01X11751Y23129D01*
G01X4664Y23129D02*
G01X11751Y23129D01*
G54D10*
G01X7400Y1550D02*
G01X300Y1550D01*
G01X300Y9600D01*
G01X7400Y9600D01*
G01X7400Y1550D01*
G01X15500Y1550D02*
G01X8400Y1550D01*
G01X8400Y9600D01*
G01X15500Y9600D01*
G01X15500Y1550D01*
G54D24*
G01X2500Y20100D02*
G01X2500Y19109D01*
G01X500Y19109D01*
G01X500Y20100D01*
G01X2500Y20100D01*
G01X700Y12100D02*
G01X1689Y12100D01*
G01X1689Y10100D01*
G01X700Y10100D01*
G01X700Y12100D01*
G01X15500Y20100D02*
G01X15500Y19109D01*
G01X13500Y19109D01*
G01X13500Y20100D01*
G01X15500Y20100D01*
G01X15100Y10100D02*
G01X14110Y10100D01*
G01X14110Y12100D01*
G01X15100Y12100D01*
G01X15100Y10100D01*
G01X14000Y1200D02*
G01X14000Y209D01*
G01X12000Y209D01*
G01X12000Y1200D01*
G01X14000Y1200D01*
G54D25*
G01X12229Y19104D02*
G01X12229Y18584D01*
G01X13044Y18584D01*
G01X13044Y19104D01*
G01X12229Y19550D02*
G01X12229Y20069D01*
G01X13044Y20069D01*
G01X13044Y19550D01*
G01X15046Y17669D02*
G01X15046Y18189D01*
G01X14231Y18189D01*
G01X14231Y17669D01*
G01X15046Y17223D02*
G01X15046Y16704D01*
G01X14231Y16704D01*
G01X14231Y17223D01*
G01X1168Y14545D02*
G01X1168Y14025D01*
G01X1983Y14025D01*
G01X1983Y14545D01*
G01X1168Y14991D02*
G01X1168Y15510D01*
G01X1983Y15510D01*
G01X1983Y14991D01*
G54D26*
G01X3000Y10900D02*
G01X3000Y10900D01*
G01X9000Y10900D01*
G01X9000Y18900D01*
G01X3000Y18900D01*
G01X3000Y10900D01*
G54D24*
G01X12200Y13150D02*
G01X12200Y12400D01*
G01X13200Y12400D01*
G01X13200Y15400D01*
G01X12200Y15400D01*
G54D27*
G01X12200Y15400D02*
G01X12200Y13150D01*
G54D28*
G01X606Y17357D02*
G01X565Y17336D01*
G01X525Y17294D01*
G01X505Y17255D01*
G01X505Y17173D01*
G01X525Y17132D01*
G01X565Y17090D01*
G01X606Y17069D01*
G01X668Y17050D01*
G01X769Y17050D01*
G01X831Y17069D01*
G01X872Y17090D01*
G01X914Y17132D01*
G01X934Y17173D01*
G01X934Y17255D01*
G01X914Y17294D01*
G01X872Y17336D01*
G01X831Y17357D01*
G01X585Y17492D02*
G01X565Y17532D01*
G01X505Y17594D01*
G01X934Y17594D01*
G01X6900Y600D02*
G01X6900Y171D01*
G01X7185Y600D02*
G01X7185Y171D01*
G01X6900Y396D02*
G01X7185Y396D01*
G01X7321Y519D02*
G01X7361Y538D01*
G01X7423Y600D01*
G01X7423Y171D01*
G01X8200Y23944D02*
G01X8200Y23638D01*
G01X8219Y23577D01*
G01X8260Y23536D01*
G01X8322Y23515D01*
G01X8364Y23515D01*
G01X8425Y23536D01*
G01X8465Y23577D01*
G01X8485Y23638D01*
G01X8485Y23944D01*
G01X8621Y23863D02*
G01X8661Y23884D01*
G01X8723Y23944D01*
G01X8723Y23515D01*
G01X2693Y10194D02*
G01X2693Y9765D01*
G01X2550Y10194D02*
G01X2835Y10194D01*
G01X2971Y10194D02*
G01X2971Y9765D01*
G01X2971Y10194D02*
G01X3155Y10194D01*
G01X3217Y10175D01*
G01X3236Y10155D01*
G01X3257Y10113D01*
G01X3257Y10073D01*
G01X3236Y10032D01*
G01X3217Y10011D01*
G01X3155Y9990D01*
G01X2971Y9990D02*
G01X3155Y9990D01*
G01X3217Y9969D01*
G01X3236Y9950D01*
G01X3257Y9909D01*
G01X3257Y9848D01*
G01X3236Y9807D01*
G01X3217Y9786D01*
G01X3155Y9765D01*
G01X2971Y9765D01*
G01X3638Y10134D02*
G01X3618Y10175D01*
G01X3556Y10194D01*
G01X3514Y10194D01*
G01X3453Y10175D01*
G01X3413Y10113D01*
G01X3393Y10011D01*
G01X3393Y9909D01*
G01X3413Y9826D01*
G01X3453Y9786D01*
G01X3514Y9765D01*
G01X3535Y9765D01*
G01X3597Y9786D01*
G01X3638Y9826D01*
G01X3659Y9888D01*
G01X3659Y9909D01*
G01X3638Y9969D01*
G01X3597Y10011D01*
G01X3535Y10032D01*
G01X3514Y10032D01*
G01X3453Y10011D01*
G01X3413Y9969D01*
G01X3393Y9909D01*
G01X4039Y10134D02*
G01X4018Y10175D01*
G01X3956Y10194D01*
G01X3915Y10194D01*
G01X3855Y10175D01*
G01X3814Y10113D01*
G01X3793Y10011D01*
G01X3793Y9909D01*
G01X3814Y9826D01*
G01X3855Y9786D01*
G01X3915Y9765D01*
G01X3936Y9765D01*
G01X3997Y9786D01*
G01X4039Y9826D01*
G01X4060Y9888D01*
G01X4060Y9909D01*
G01X4039Y9969D01*
G01X3997Y10011D01*
G01X3936Y10032D01*
G01X3915Y10032D01*
G01X3855Y10011D01*
G01X3814Y9969D01*
G01X3793Y9909D01*
G01X4194Y10113D02*
G01X4235Y10134D01*
G01X4297Y10194D01*
G01X4297Y9765D01*
G01X4452Y10092D02*
G01X4452Y10113D01*
G01X4472Y10155D01*
G01X4493Y10175D01*
G01X4534Y10194D01*
G01X4615Y10194D01*
G01X4656Y10175D01*
G01X4677Y10155D01*
G01X4697Y10113D01*
G01X4697Y10073D01*
G01X4677Y10032D01*
G01X4635Y9969D01*
G01X4431Y9765D01*
G01X4718Y9765D01*
G01X4852Y9623D02*
G01X5221Y9623D01*
G01X5356Y10113D02*
G01X5397Y10134D01*
G01X5459Y10194D01*
G01X5459Y9765D01*
G01X10593Y10194D02*
G01X10593Y9765D01*
G01X10450Y10194D02*
G01X10735Y10194D01*
G01X10871Y10194D02*
G01X10871Y9765D01*
G01X10871Y10194D02*
G01X11055Y10194D01*
G01X11117Y10175D01*
G01X11136Y10155D01*
G01X11157Y10113D01*
G01X11157Y10073D01*
G01X11136Y10032D01*
G01X11117Y10011D01*
G01X11055Y9990D01*
G01X10871Y9990D02*
G01X11055Y9990D01*
G01X11117Y9969D01*
G01X11136Y9950D01*
G01X11157Y9909D01*
G01X11157Y9848D01*
G01X11136Y9807D01*
G01X11117Y9786D01*
G01X11055Y9765D01*
G01X10871Y9765D01*
G01X11538Y10134D02*
G01X11518Y10175D01*
G01X11456Y10194D01*
G01X11414Y10194D01*
G01X11353Y10175D01*
G01X11313Y10113D01*
G01X11293Y10011D01*
G01X11293Y9909D01*
G01X11313Y9826D01*
G01X11353Y9786D01*
G01X11414Y9765D01*
G01X11435Y9765D01*
G01X11497Y9786D01*
G01X11538Y9826D01*
G01X11559Y9888D01*
G01X11559Y9909D01*
G01X11538Y9969D01*
G01X11497Y10011D01*
G01X11435Y10032D01*
G01X11414Y10032D01*
G01X11353Y10011D01*
G01X11313Y9969D01*
G01X11293Y9909D01*
G01X11939Y10134D02*
G01X11918Y10175D01*
G01X11856Y10194D01*
G01X11815Y10194D01*
G01X11755Y10175D01*
G01X11714Y10113D01*
G01X11693Y10011D01*
G01X11693Y9909D01*
G01X11714Y9826D01*
G01X11755Y9786D01*
G01X11815Y9765D01*
G01X11836Y9765D01*
G01X11897Y9786D01*
G01X11939Y9826D01*
G01X11960Y9888D01*
G01X11960Y9909D01*
G01X11939Y9969D01*
G01X11897Y10011D01*
G01X11836Y10032D01*
G01X11815Y10032D01*
G01X11755Y10011D01*
G01X11714Y9969D01*
G01X11693Y9909D01*
G01X12094Y10113D02*
G01X12135Y10134D01*
G01X12197Y10194D01*
G01X12197Y9765D01*
G01X12352Y10092D02*
G01X12352Y10113D01*
G01X12372Y10155D01*
G01X12393Y10175D01*
G01X12434Y10194D01*
G01X12515Y10194D01*
G01X12556Y10175D01*
G01X12577Y10155D01*
G01X12597Y10113D01*
G01X12597Y10073D01*
G01X12577Y10032D01*
G01X12535Y9969D01*
G01X12331Y9765D01*
G01X12618Y9765D01*
G01X12752Y9623D02*
G01X13121Y9623D01*
G01X13277Y10092D02*
G01X13277Y10113D01*
G01X13297Y10155D01*
G01X13318Y10175D01*
G01X13359Y10194D01*
G01X13439Y10194D01*
G01X13481Y10175D01*
G01X13502Y10155D01*
G01X13522Y10113D01*
G01X13522Y10073D01*
G01X13502Y10032D01*
G01X13460Y9969D01*
G01X13256Y9765D01*
G01X13543Y9765D01*
G01X2700Y20000D02*
G01X2700Y19571D01*
G01X2700Y20000D02*
G01X2864Y19571D01*
G01X3027Y20000D02*
G01X2864Y19571D01*
G01X3027Y20000D02*
G01X3027Y19571D01*
G01X3161Y19919D02*
G01X3202Y19938D01*
G01X3264Y20000D01*
G01X3264Y19571D01*
G01X700Y12192D02*
G01X1128Y12192D01*
G01X700Y12192D02*
G01X1128Y12355D01*
G01X700Y12519D02*
G01X1128Y12355D01*
G01X700Y12519D02*
G01X1128Y12519D01*
G01X802Y12675D02*
G01X781Y12675D01*
G01X739Y12694D01*
G01X719Y12715D01*
G01X700Y12757D01*
G01X700Y12838D01*
G01X719Y12878D01*
G01X739Y12900D01*
G01X781Y12919D01*
G01X822Y12919D01*
G01X863Y12900D01*
G01X925Y12859D01*
G01X1128Y12653D01*
G01X1128Y12940D01*
G01X14900Y19000D02*
G01X14900Y18571D01*
G01X14900Y19000D02*
G01X15064Y18571D01*
G01X15227Y19000D02*
G01X15064Y18571D01*
G01X15227Y19000D02*
G01X15227Y18571D01*
G01X15402Y19000D02*
G01X15627Y19000D01*
G01X15505Y18836D01*
G01X15567Y18836D01*
G01X15607Y18815D01*
G01X15627Y18796D01*
G01X15648Y18734D01*
G01X15648Y18694D01*
G01X15627Y18632D01*
G01X15586Y18590D01*
G01X15526Y18571D01*
G01X15464Y18571D01*
G01X15402Y18590D01*
G01X15382Y18611D01*
G01X15361Y18653D01*
G01X13500Y11292D02*
G01X13928Y11292D01*
G01X13500Y11292D02*
G01X13928Y11455D01*
G01X13500Y11619D02*
G01X13928Y11455D01*
G01X13500Y11619D02*
G01X13928Y11619D01*
G01X13500Y11959D02*
G01X13785Y11753D01*
G01X13785Y12061D01*
G01X13500Y11959D02*
G01X13928Y11959D01*
G01X14200Y700D02*
G01X14200Y271D01*
G01X14200Y700D02*
G01X14384Y700D01*
G01X14444Y680D01*
G01X14465Y659D01*
G01X14485Y619D01*
G01X14485Y557D01*
G01X14465Y515D01*
G01X14444Y496D01*
G01X14384Y475D01*
G01X14200Y475D01*
G01X14867Y638D02*
G01X14846Y680D01*
G01X14785Y700D01*
G01X14743Y700D01*
G01X14682Y680D01*
G01X14642Y619D01*
G01X14621Y515D01*
G01X14621Y413D01*
G01X14642Y332D01*
G01X14682Y290D01*
G01X14743Y271D01*
G01X14764Y271D01*
G01X14826Y290D01*
G01X14867Y332D01*
G01X14886Y394D01*
G01X14886Y413D01*
G01X14867Y475D01*
G01X14826Y515D01*
G01X14764Y536D01*
G01X14743Y536D01*
G01X14682Y515D01*
G01X14642Y475D01*
G01X14621Y413D01*
G01X13100Y18276D02*
G01X13529Y18276D01*
G01X13100Y18276D02*
G01X13100Y18459D01*
G01X13120Y18521D01*
G01X13140Y18542D01*
G01X13181Y18561D01*
G01X13222Y18561D01*
G01X13263Y18542D01*
G01X13284Y18521D01*
G01X13304Y18459D01*
G01X13304Y18276D01*
G01X13304Y18419D02*
G01X13529Y18561D01*
G01X13181Y18696D02*
G01X13161Y18738D01*
G01X13100Y18800D01*
G01X13529Y18800D01*
G01X13802Y17178D02*
G01X13761Y17157D01*
G01X13720Y17117D01*
G01X13700Y17077D01*
G01X13700Y16994D01*
G01X13720Y16953D01*
G01X13761Y16913D01*
G01X13802Y16892D01*
G01X13863Y16871D01*
G01X13965Y16871D01*
G01X14027Y16892D01*
G01X14068Y16913D01*
G01X14109Y16953D01*
G01X14129Y16994D01*
G01X14129Y17077D01*
G01X14109Y17117D01*
G01X14068Y17157D01*
G01X14027Y17178D01*
G01X13802Y17334D02*
G01X13781Y17334D01*
G01X13740Y17355D01*
G01X13720Y17375D01*
G01X13700Y17415D01*
G01X13700Y17498D01*
G01X13720Y17538D01*
G01X13740Y17559D01*
G01X13781Y17580D01*
G01X13822Y17580D01*
G01X13863Y17559D01*
G01X13925Y17517D01*
G01X14129Y17313D01*
G01X14129Y17600D01*
G01X656Y14507D02*
G01X615Y14486D01*
G01X575Y14444D01*
G01X555Y14405D01*
G01X555Y14323D01*
G01X575Y14282D01*
G01X615Y14240D01*
G01X656Y14219D01*
G01X718Y14200D01*
G01X819Y14200D01*
G01X881Y14219D01*
G01X922Y14240D01*
G01X964Y14282D01*
G01X984Y14323D01*
G01X984Y14405D01*
G01X964Y14444D01*
G01X922Y14486D01*
G01X881Y14507D01*
G01X555Y14682D02*
G01X555Y14907D01*
G01X718Y14784D01*
G01X718Y14846D01*
G01X739Y14886D01*
G01X759Y14907D01*
G01X819Y14928D01*
G01X860Y14928D01*
G01X922Y14907D01*
G01X964Y14867D01*
G01X984Y14805D01*
G01X984Y14744D01*
G01X964Y14682D01*
G01X943Y14661D01*
G01X902Y14642D01*
G01X2400Y13476D02*
G01X2829Y13476D01*
G01X2400Y13476D02*
G01X2400Y13659D01*
G01X2420Y13721D01*
G01X2440Y13742D01*
G01X2481Y13761D01*
G01X2543Y13761D01*
G01X2584Y13742D01*
G01X2604Y13721D01*
G01X2625Y13659D01*
G01X2625Y13476D01*
G01X2481Y13896D02*
G01X2461Y13938D01*
G01X2400Y14000D01*
G01X2829Y14000D01*
G01X12300Y15591D02*
G01X12729Y15591D01*
G01X12300Y15591D02*
G01X12300Y15775D01*
G01X12320Y15836D01*
G01X12340Y15857D01*
G01X12381Y15877D01*
G01X12443Y15877D01*
G01X12484Y15857D01*
G01X12504Y15836D01*
G01X12525Y15775D01*
G01X12525Y15591D01*
G01X12300Y16299D02*
G01X12729Y16094D01*
G01X12300Y16012D02*
G01X12300Y16299D01*
G54D10*
G75*
G01X5301Y20200D02*
G03X5301Y20200I-83J0D01*
G01*
M00*
M02*
