G04 ---------------------------- Layer name :BOTTOM SILK LAYER*
G04 EasyEDA v5.6.15, Thu, 02 Aug 2018 18:58:32 GMT*
G04 5b09e127fb854e9390a9dbda6a4debf4*
G04 Gerber Generator version 0.2*
G04 Scale: 100 percent, Rotated: No, Reflected: No *
G04 Dimensions in inches *
G04 leading zeros omitted , absolute positions ,2 integer and 4 decimal *
%FSLAX24Y24*%
%MOIN*%
G90*
G70D02*

%ADD24C,0.008000*%

%LPD*%
G54D24*
G01X10992Y18499D02*
G01X10992Y17736D01*
G01X10992Y18499D02*
G01X10665Y18499D01*
G01X10556Y18463D01*
G01X10520Y18427D01*
G01X10483Y18354D01*
G01X10483Y18281D01*
G01X10520Y18209D01*
G01X10556Y18172D01*
G01X10665Y18136D01*
G01X10992Y18136D01*
G01X10738Y18136D02*
G01X10483Y17736D01*
G01X10207Y18318D02*
G01X10207Y18354D01*
G01X10170Y18427D01*
G01X10134Y18463D01*
G01X10061Y18499D01*
G01X9916Y18499D01*
G01X9843Y18463D01*
G01X9807Y18427D01*
G01X9770Y18354D01*
G01X9770Y18281D01*
G01X9807Y18209D01*
G01X9880Y18099D01*
G01X10243Y17736D01*
G01X9734Y17736D01*
G01X9494Y18499D02*
G01X9494Y17736D01*
G01X9494Y18499D02*
G01X9167Y18499D01*
G01X9058Y18463D01*
G01X9021Y18427D01*
G01X8985Y18354D01*
G01X8985Y18281D01*
G01X9021Y18209D01*
G01X9058Y18172D01*
G01X9167Y18136D01*
G01X9494Y18136D02*
G01X9167Y18136D01*
G01X9058Y18099D01*
G01X9021Y18063D01*
G01X8985Y17990D01*
G01X8985Y17881D01*
G01X9021Y17809D01*
G01X9058Y17772D01*
G01X9167Y17736D01*
G01X9494Y17736D01*
G01X8709Y18318D02*
G01X8709Y18354D01*
G01X8672Y18427D01*
G01X8636Y18463D01*
G01X8563Y18499D01*
G01X8418Y18499D01*
G01X8345Y18463D01*
G01X8309Y18427D01*
G01X8272Y18354D01*
G01X8272Y18281D01*
G01X8309Y18209D01*
G01X8381Y18099D01*
G01X8745Y17736D01*
G01X8236Y17736D01*
G01X7996Y18063D02*
G01X7341Y18063D01*
G01X7101Y18499D02*
G01X7101Y17736D01*
G01X7101Y18499D02*
G01X6592Y17736D01*
G01X6592Y18499D02*
G01X6592Y17736D01*
G01X6061Y18499D02*
G01X6352Y17736D01*
G01X6061Y18499D02*
G01X5770Y17736D01*
G01X6243Y17990D02*
G01X5880Y17990D01*
G01X5530Y18499D02*
G01X5530Y17736D01*
G01X5530Y18499D02*
G01X5021Y17736D01*
G01X5021Y18499D02*
G01X5021Y17736D01*
G01X4563Y18499D02*
G01X4636Y18463D01*
G01X4709Y18390D01*
G01X4745Y18318D01*
G01X4781Y18209D01*
G01X4781Y18027D01*
G01X4745Y17918D01*
G01X4709Y17845D01*
G01X4636Y17772D01*
G01X4563Y17736D01*
G01X4418Y17736D01*
G01X4345Y17772D01*
G01X4272Y17845D01*
G01X4236Y17918D01*
G01X4200Y18027D01*
G01X4200Y18209D01*
G01X4236Y18318D01*
G01X4272Y18390D01*
G01X4345Y18463D01*
G01X4418Y18499D01*
G01X4563Y18499D01*
G01X10558Y15909D02*
G01X10594Y15981D01*
G01X10667Y16018D01*
G01X10776Y16018D01*
G01X10849Y15981D01*
G01X10885Y15945D01*
G01X10921Y15836D01*
G01X10921Y15727D01*
G01X10885Y15654D01*
G01X10812Y15618D01*
G01X10703Y15618D01*
G01X10630Y15654D01*
G01X10594Y15727D01*
G01X10776Y16018D02*
G01X10849Y15945D01*
G01X10885Y15836D01*
G01X10885Y15727D01*
G01X10849Y15654D01*
G01X10812Y15618D01*
G01X10558Y16018D02*
G01X10594Y15727D01*
G01X10594Y15654D01*
G01X10521Y15618D01*
G01X10449Y15618D01*
G01X10376Y15690D01*
G01X10340Y15800D01*
G01X10340Y15872D01*
G01X10376Y15981D01*
G01X10412Y16054D01*
G01X10485Y16127D01*
G01X10558Y16163D01*
G01X10667Y16200D01*
G01X10776Y16200D01*
G01X10885Y16163D01*
G01X10958Y16127D01*
G01X11030Y16054D01*
G01X11067Y15981D01*
G01X11103Y15872D01*
G01X11103Y15763D01*
G01X11067Y15654D01*
G01X11030Y15581D01*
G01X10958Y15509D01*
G01X10885Y15472D01*
G01X10776Y15436D01*
G01X10667Y15436D01*
G01X10558Y15472D01*
G01X10485Y15509D01*
G01X10449Y15545D01*
G01X10521Y16018D02*
G01X10558Y15727D01*
G01X10558Y15654D01*
G01X10521Y15618D01*
G01X10100Y16200D02*
G01X10100Y15436D01*
G01X10100Y16200D02*
G01X9772Y16200D01*
G01X9663Y16163D01*
G01X9627Y16127D01*
G01X9590Y16054D01*
G01X9590Y15945D01*
G01X9627Y15872D01*
G01X9663Y15836D01*
G01X9772Y15800D01*
G01X10100Y15800D01*
G01X9350Y16200D02*
G01X9350Y15436D01*
G01X9350Y16200D02*
G01X9023Y16200D01*
G01X8914Y16163D01*
G01X8878Y16127D01*
G01X8841Y16054D01*
G01X8841Y15981D01*
G01X8878Y15909D01*
G01X8914Y15872D01*
G01X9023Y15836D01*
G01X9350Y15836D01*
G01X9096Y15836D02*
G01X8841Y15436D01*
G01X8383Y16200D02*
G01X8456Y16163D01*
G01X8529Y16090D01*
G01X8565Y16018D01*
G01X8601Y15909D01*
G01X8601Y15727D01*
G01X8565Y15618D01*
G01X8529Y15545D01*
G01X8456Y15472D01*
G01X8383Y15436D01*
G01X8238Y15436D01*
G01X8165Y15472D01*
G01X8092Y15545D01*
G01X8056Y15618D01*
G01X8020Y15727D01*
G01X8020Y15909D01*
G01X8056Y16018D01*
G01X8092Y16090D01*
G01X8165Y16163D01*
G01X8238Y16200D01*
G01X8383Y16200D01*
G01X7780Y16200D02*
G01X7780Y15654D01*
G01X7743Y15545D01*
G01X7670Y15472D01*
G01X7561Y15436D01*
G01X7489Y15436D01*
G01X7380Y15472D01*
G01X7307Y15545D01*
G01X7270Y15654D01*
G01X7270Y16200D01*
G01X7030Y16200D02*
G01X7030Y15436D01*
G01X7030Y16200D02*
G01X6703Y16200D01*
G01X6594Y16163D01*
G01X6558Y16127D01*
G01X6521Y16054D01*
G01X6521Y15981D01*
G01X6558Y15909D01*
G01X6594Y15872D01*
G01X6703Y15836D01*
G01X7030Y15836D01*
G01X6776Y15836D02*
G01X6521Y15436D01*
G01X5990Y16200D02*
G01X6281Y15436D01*
G01X5990Y16200D02*
G01X5700Y15436D01*
G01X6172Y15690D02*
G01X5809Y15690D01*
G01X11000Y17336D02*
G01X11000Y16572D01*
G01X11000Y17336D02*
G01X10672Y17336D01*
G01X10563Y17300D01*
G01X10527Y17263D01*
G01X10490Y17190D01*
G01X10490Y17118D01*
G01X10527Y17045D01*
G01X10563Y17009D01*
G01X10672Y16972D01*
G01X11000Y16972D02*
G01X10672Y16972D01*
G01X10563Y16936D01*
G01X10527Y16900D01*
G01X10490Y16827D01*
G01X10490Y16718D01*
G01X10527Y16645D01*
G01X10563Y16609D01*
G01X10672Y16572D01*
G01X11000Y16572D01*
G01X10032Y17336D02*
G01X10105Y17300D01*
G01X10178Y17227D01*
G01X10214Y17154D01*
G01X10250Y17045D01*
G01X10250Y16863D01*
G01X10214Y16754D01*
G01X10178Y16681D01*
G01X10105Y16609D01*
G01X10032Y16572D01*
G01X9887Y16572D01*
G01X9814Y16609D01*
G01X9741Y16681D01*
G01X9705Y16754D01*
G01X9669Y16863D01*
G01X9669Y17045D01*
G01X9705Y17154D01*
G01X9741Y17227D01*
G01X9814Y17300D01*
G01X9887Y17336D01*
G01X10032Y17336D01*
G01X9138Y17336D02*
G01X9429Y16572D01*
G01X9138Y17336D02*
G01X8847Y16572D01*
G01X9319Y16827D02*
G01X8956Y16827D01*
G01X8607Y17336D02*
G01X8607Y16572D01*
G01X8607Y17336D02*
G01X8280Y17336D01*
G01X8170Y17300D01*
G01X8134Y17263D01*
G01X8098Y17190D01*
G01X8098Y17118D01*
G01X8134Y17045D01*
G01X8170Y17009D01*
G01X8280Y16972D01*
G01X8607Y16972D01*
G01X8352Y16972D02*
G01X8098Y16572D01*
G01X7858Y17336D02*
G01X7858Y16572D01*
G01X7858Y17336D02*
G01X7603Y17336D01*
G01X7494Y17300D01*
G01X7421Y17227D01*
G01X7385Y17154D01*
G01X7349Y17045D01*
G01X7349Y16863D01*
G01X7385Y16754D01*
G01X7421Y16681D01*
G01X7494Y16609D01*
G01X7603Y16572D01*
G01X7858Y16572D01*
G01X7109Y16900D02*
G01X6454Y16900D01*
G01X6214Y17336D02*
G01X5923Y16572D01*
G01X5632Y17336D02*
G01X5923Y16572D01*
G01X5174Y17336D02*
G01X5283Y17300D01*
G01X5356Y17190D01*
G01X5392Y17009D01*
G01X5392Y16900D01*
G01X5356Y16718D01*
G01X5283Y16609D01*
G01X5174Y16572D01*
G01X5101Y16572D01*
G01X4992Y16609D01*
G01X4919Y16718D01*
G01X4883Y16900D01*
G01X4883Y17009D01*
G01X4919Y17190D01*
G01X4992Y17300D01*
G01X5101Y17336D01*
G01X5174Y17336D01*
G01X4607Y16754D02*
G01X4643Y16718D01*
G01X4607Y16681D01*
G01X4570Y16718D01*
G01X4607Y16754D01*
G01X4294Y17154D02*
G01X4294Y17190D01*
G01X4258Y17263D01*
G01X4221Y17300D01*
G01X4149Y17336D01*
G01X4003Y17336D01*
G01X3930Y17300D01*
G01X3894Y17263D01*
G01X3858Y17190D01*
G01X3858Y17118D01*
G01X3894Y17045D01*
G01X3967Y16936D01*
G01X4330Y16572D01*
G01X3821Y16572D01*
M00*
M02*
