G04 ---------------------------- Layer name :BOTTOM SOLDER LAYER*
G04 EasyEDA v5.6.15, Thu, 02 Aug 2018 18:58:32 GMT*
G04 5b09e127fb854e9390a9dbda6a4debf4*
G04 Gerber Generator version 0.2*
G04 Scale: 100 percent, Rotated: No, Reflected: No *
G04 Dimensions in inches *
G04 leading zeros omitted , absolute positions ,2 integer and 4 decimal *
%FSLAX24Y24*%
%MOIN*%
G90*
G70D02*

%ADD18C,0.082000*%
%ADD29R,0.074000X0.074000*%
%ADD30C,0.074000*%
%ADD31R,0.070000X0.070000*%
%ADD32C,0.070000*%

%LPD*%
G54D29*
G01X2100Y700D03*
G54D30*
G01X3100Y700D03*
G01X4100Y700D03*
G01X5100Y700D03*
G01X6100Y700D03*
G54D29*
G01X800Y9100D03*
G54D30*
G01X6900Y9100D03*
G01X800Y8100D03*
G01X800Y7100D03*
G01X800Y6100D03*
G01X800Y5100D03*
G01X800Y4100D03*
G01X800Y3100D03*
G01X800Y2100D03*
G01X6900Y8100D03*
G01X6900Y7100D03*
G01X6900Y6100D03*
G01X6900Y5100D03*
G01X6900Y4100D03*
G01X6900Y3100D03*
G01X6900Y2100D03*
G54D29*
G01X8900Y9100D03*
G54D30*
G01X15000Y9100D03*
G01X8900Y8100D03*
G01X8900Y7100D03*
G01X8900Y6100D03*
G01X8900Y5100D03*
G01X8900Y4100D03*
G01X8900Y3100D03*
G01X8900Y2100D03*
G01X15000Y8100D03*
G01X15000Y7100D03*
G01X15000Y6100D03*
G01X15000Y5100D03*
G01X15000Y4100D03*
G01X15000Y3100D03*
G01X15000Y2100D03*
G54D31*
G01X1000Y19600D03*
G54D32*
G01X2000Y19600D03*
G54D31*
G01X1200Y10600D03*
G54D32*
G01X1200Y11600D03*
G54D31*
G01X14000Y19600D03*
G54D32*
G01X15000Y19600D03*
G54D31*
G01X14600Y11600D03*
G54D32*
G01X14600Y10600D03*
G54D31*
G01X12500Y700D03*
G54D32*
G01X13500Y700D03*
G54D18*
G01X3500Y18400D03*
G01X3500Y17400D03*
G01X3500Y16400D03*
G01X3500Y15400D03*
G01X3500Y14400D03*
G01X3500Y13400D03*
G01X3500Y12400D03*
G01X3500Y11400D03*
G54D32*
G01X12700Y14900D03*
G01X12700Y13900D03*
G54D31*
G01X12700Y12900D03*
M00*
M02*
