G04 ---------------------------- Layer name :TOP LAYER*
G04 EasyEDA v5.6.15, Thu, 02 Aug 2018 18:58:32 GMT*
G04 5b09e127fb854e9390a9dbda6a4debf4*
G04 Gerber Generator version 0.2*
G04 Scale: 100 percent, Rotated: No, Reflected: No *
G04 Dimensions in inches *
G04 leading zeros omitted , absolute positions ,2 integer and 4 decimal *
%FSLAX24Y24*%
%MOIN*%
G90*
G70D02*

%ADD10C,0.010000*%
%ADD11C,0.015000*%
%ADD12C,0.024400*%
%ADD13R,0.102362X0.070866*%
%ADD14R,0.045276X0.035433*%
%ADD15R,0.157480X0.157480*%
%ADD16R,0.057870X0.045670*%
%ADD17R,0.066000X0.066000*%
%ADD18C,0.066000*%
%ADD19R,0.062000X0.062000*%
%ADD20C,0.062000*%
%ADD21C,0.074000*%

%LPD*%
G54D10*
G01X11710Y19200D02*
G01X10800Y19200D01*
G01X11300Y17700D02*
G01X11710Y17700D01*
G01X6900Y15700D02*
G01X6900Y15700D01*
G01X6900Y9100D01*
G01X6900Y8100D02*
G01X6450Y8550D01*
G01X6450Y15450D01*
G01X5700Y16200D01*
G01X4840Y16200D01*
G01X6900Y15700D02*
G01X6800Y15800D01*
G01X5900Y16700D01*
G01X4840Y16700D01*
G01X6900Y7100D02*
G01X6150Y7850D01*
G01X6150Y15250D01*
G01X5700Y15700D01*
G01X4840Y15700D01*
G01X6900Y5100D02*
G01X5900Y6100D01*
G01X5900Y15050D01*
G01X5750Y15200D01*
G01X4840Y15200D01*
G01X6900Y4100D02*
G01X6600Y4100D01*
G01X5600Y5100D01*
G01X5600Y14500D01*
G01X5400Y14700D01*
G01X4840Y14700D01*
G01X4840Y14200D02*
G01X5200Y14200D01*
G01X5300Y14100D01*
G01X5300Y4700D01*
G01X6900Y3100D01*
G01X4400Y13700D02*
G01X4840Y13700D01*
G01X4840Y12700D02*
G01X4300Y12700D01*
G01X11710Y15700D02*
G01X13100Y15700D01*
G01X13400Y16000D02*
G01X12300Y16000D01*
G01X12100Y16200D01*
G01X11710Y16200D01*
G01X11710Y16200D01*
G01X9600Y11800D02*
G01X9600Y16100D01*
G01X10200Y16700D01*
G01X11710Y16700D01*
G01X11710Y16700D01*
G01X10800Y12700D02*
G01X11710Y12700D01*
G01X11710Y12700D01*
G01X4700Y9200D02*
G01X4700Y5600D01*
G01X11710Y18200D02*
G01X11300Y18200D01*
G01X9100Y16000D01*
G01X9100Y14100D01*
G01X8200Y13200D01*
G01X11710Y18700D02*
G01X11400Y18700D01*
G01X8800Y16100D01*
G01X8800Y14200D01*
G01X7800Y13200D01*
G01X4300Y9200D02*
G01X4300Y5600D01*
G01X11710Y13700D02*
G01X10600Y13700D01*
G01X10300Y13400D01*
G01X10300Y10700D01*
G01X9900Y10300D01*
G01X8400Y10300D01*
G01X8000Y9900D01*
G01X8000Y7700D01*
G01X7600Y7300D01*
G01X7600Y6900D01*
G01X7300Y6600D01*
G01X6600Y6600D01*
G01X6400Y6400D01*
G01X6400Y5900D01*
G01X6700Y5600D01*
G01X7400Y5600D01*
G01X7700Y5300D01*
G01X7700Y2600D01*
G54D11*
G01X6900Y2100D02*
G01X8900Y2100D01*
G01X6900Y2100D02*
G01X900Y2100D01*
G01X13500Y700D02*
G01X13500Y1600D01*
G01X14000Y2100D01*
G01X15000Y2100D01*
G01X900Y7100D02*
G01X1100Y7100D01*
G01X1700Y6500D01*
G01X1700Y6200D01*
G01X1100Y5600D01*
G01X400Y5600D01*
G01X200Y5400D01*
G01X200Y2300D01*
G01X400Y2100D01*
G01X800Y2100D01*
G01X4300Y13200D02*
G01X4840Y13200D01*
G01X3500Y17400D02*
G01X3700Y17400D01*
G01X4100Y17000D01*
G01X4100Y13400D01*
G01X4300Y13200D01*
G01X3500Y17400D02*
G01X3500Y17500D01*
G01X4100Y18100D01*
G01X4100Y19900D01*
G01X4400Y20200D01*
G01X4840Y20200D01*
G01X4840Y20200D02*
G01X11710Y20200D01*
G01X11710Y20200D01*
G01X8900Y7100D02*
G01X9300Y7100D01*
G01X9900Y7700D01*
G01X10300Y8100D01*
G01X11200Y8100D01*
G01X13200Y10100D01*
G01X13200Y13900D01*
G01X12700Y13900D01*
G01X800Y2100D02*
G01X1800Y2100D01*
G01X2100Y1800D01*
G01X2100Y700D01*
G01X6900Y6100D02*
G01X7500Y6100D01*
G01X7700Y6300D01*
G01X7800Y6400D01*
G01X7800Y7200D01*
G01X8600Y8000D01*
G01X8900Y8100D01*
G01X8900Y8100D02*
G01X8200Y8800D01*
G01X8200Y9800D01*
G01X8500Y10100D01*
G01X11900Y10100D01*
G01X12200Y10400D01*
G01X5400Y19700D02*
G01X4840Y19700D01*
G01X1800Y17900D02*
G01X2300Y18400D01*
G01X3500Y18400D01*
G01X1800Y16717D02*
G01X2481Y17400D01*
G01X3500Y17400D01*
G01X5400Y19200D02*
G01X4840Y19200D01*
G01X1800Y17900D02*
G01X1000Y17900D01*
G01X900Y17800D01*
G01X900Y14500D01*
G01X1200Y14200D01*
G01X1480Y14200D01*
G01X1669Y14009D01*
G01X1669Y15009D02*
G01X1669Y16588D01*
G01X1800Y16717D01*
G01X1669Y14009D02*
G01X1669Y11830D01*
G01X2600Y10900D01*
G01X3600Y9900D01*
G01X3600Y8100D01*
G01X14750Y16900D02*
G01X14730Y13930D01*
G01X14200Y13400D01*
G54D10*
G01X7200Y12100D02*
G01X7200Y15800D01*
G01X5900Y17100D01*
G01X5900Y18700D01*
G01X5400Y19200D01*
G01X14100Y17950D02*
G01X14539Y17950D01*
G01X14639Y17851D01*
G01X13200Y19350D02*
G01X13009Y19350D01*
G01X12636Y19722D01*
G01X12150Y19700D02*
G01X12614Y19700D01*
G01X12636Y19722D01*
G01X11640Y19699D02*
G01X10499Y19699D01*
G01X10450Y19650D01*
G01X10450Y18100D01*
G01X8750Y16400D01*
G01X8550Y16200D01*
G01X8550Y16000D01*
G01X8400Y15850D01*
G54D11*
G01X800Y3100D02*
G01X1150Y3100D01*
G01X3000Y4950D01*
G01X3000Y9800D01*
G01X1200Y11600D01*
G01X800Y4100D02*
G01X1250Y4100D01*
G01X2550Y5400D01*
G01X2550Y9550D01*
G01X1650Y10450D01*
G01X1550Y10550D01*
G01X1250Y10550D01*
G01X1200Y10600D01*
G01X800Y5100D02*
G01X1500Y5100D01*
G01X2100Y5700D01*
G01X2100Y9400D01*
G01X1800Y9700D01*
G01X1000Y9700D01*
G01X700Y10000D01*
G01X700Y14350D01*
G01X600Y14450D01*
G01X600Y18200D01*
G01X2000Y19600D01*
G01X800Y6100D02*
G01X800Y6150D01*
G01X300Y6650D01*
G01X300Y18900D01*
G01X1000Y19600D01*
G01X8900Y9100D02*
G01X11500Y9100D01*
G01X12700Y10300D01*
G01X12700Y12900D01*
G01X8900Y9100D02*
G01X9300Y9100D01*
G01X9550Y8850D01*
G01X9550Y7800D01*
G01X9350Y7600D01*
G01X8600Y7600D01*
G01X8250Y7250D01*
G01X8250Y2950D01*
G01X8550Y2650D01*
G01X8600Y2600D01*
G01X11950Y2600D01*
G01X12500Y2050D01*
G01X12500Y700D01*
G01X14000Y19600D02*
G01X14000Y19100D01*
G01X13350Y18450D01*
G01X13100Y18200D01*
G01X13100Y16800D01*
G01X13550Y16350D01*
G01X13700Y16200D01*
G01X13700Y15350D01*
G01X13500Y15150D01*
G01X13500Y9700D01*
G01X11200Y7400D01*
G01X10200Y7400D01*
G01X8900Y6100D01*
G01X8900Y5100D02*
G01X9100Y5100D01*
G01X10250Y6250D01*
G01X13350Y6250D01*
G01X13800Y6700D01*
G01X13800Y15100D01*
G01X14050Y15350D01*
G01X14050Y16350D01*
G01X13500Y16900D01*
G01X13500Y18100D01*
G01X15000Y19600D01*
G01X8900Y4100D02*
G01X9150Y4100D01*
G01X10550Y5500D01*
G01X13700Y5500D01*
G01X14100Y5900D01*
G01X14100Y11100D01*
G01X14600Y11600D01*
G01X8900Y3100D02*
G01X9250Y3100D01*
G01X10600Y4450D01*
G01X13750Y4450D01*
G01X14450Y5150D01*
G01X14450Y10450D01*
G01X14600Y10600D01*
G01X12700Y18100D02*
G01X12700Y18859D01*
G01X12636Y18922D01*
G54D13*
G01X1800Y17900D03*
G01X1800Y16717D03*
G54D14*
G01X4771Y20200D03*
G01X4771Y19700D03*
G01X4771Y19200D03*
G01X4771Y18700D03*
G01X4771Y18200D03*
G01X4771Y17700D03*
G01X4771Y17200D03*
G01X4771Y16700D03*
G01X4771Y16200D03*
G01X4771Y15700D03*
G01X4771Y15200D03*
G01X4771Y14700D03*
G01X4771Y14200D03*
G01X4771Y13700D03*
G01X4771Y13200D03*
G01X4771Y12700D03*
G01X4771Y12200D03*
G01X4771Y11700D03*
G01X4771Y11200D03*
G01X11640Y20199D03*
G01X11640Y19699D03*
G01X11640Y19199D03*
G01X11640Y18699D03*
G01X11640Y18199D03*
G01X11640Y17699D03*
G01X11640Y17199D03*
G01X11640Y16699D03*
G01X11640Y16199D03*
G01X11640Y15699D03*
G01X11640Y15199D03*
G01X11640Y14699D03*
G01X11640Y14199D03*
G01X11640Y13699D03*
G01X11640Y13199D03*
G01X11640Y12699D03*
G01X11640Y12200D03*
G01X11640Y11700D03*
G01X11640Y11200D03*
G54D15*
G01X7664Y17133D03*
G54D16*
G01X12636Y19722D03*
G01X12636Y18922D03*
G01X14639Y17051D03*
G01X14639Y17851D03*
G01X1576Y15163D03*
G01X1576Y14363D03*
G54D17*
G01X2100Y700D03*
G54D18*
G01X3100Y700D03*
G01X4100Y700D03*
G01X5100Y700D03*
G01X6100Y700D03*
G54D17*
G01X800Y9100D03*
G54D18*
G01X6900Y9100D03*
G01X800Y8100D03*
G01X800Y7100D03*
G01X800Y6100D03*
G01X800Y5100D03*
G01X800Y4100D03*
G01X800Y3100D03*
G01X800Y2100D03*
G01X6900Y8100D03*
G01X6900Y7100D03*
G01X6900Y6100D03*
G01X6900Y5100D03*
G01X6900Y4100D03*
G01X6900Y3100D03*
G01X6900Y2100D03*
G54D17*
G01X8900Y9100D03*
G54D18*
G01X15000Y9100D03*
G01X8900Y8100D03*
G01X8900Y7100D03*
G01X8900Y6100D03*
G01X8900Y5100D03*
G01X8900Y4100D03*
G01X8900Y3100D03*
G01X8900Y2100D03*
G01X15000Y8100D03*
G01X15000Y7100D03*
G01X15000Y6100D03*
G01X15000Y5100D03*
G01X15000Y4100D03*
G01X15000Y3100D03*
G01X15000Y2100D03*
G54D19*
G01X1000Y19600D03*
G54D20*
G01X2000Y19600D03*
G54D19*
G01X1200Y10600D03*
G54D20*
G01X1200Y11600D03*
G54D19*
G01X14000Y19600D03*
G54D20*
G01X15000Y19600D03*
G54D19*
G01X14600Y11600D03*
G54D20*
G01X14600Y10600D03*
G54D19*
G01X12500Y700D03*
G54D20*
G01X13500Y700D03*
G54D21*
G01X3500Y18400D03*
G01X3500Y17400D03*
G01X3500Y16400D03*
G01X3500Y15400D03*
G01X3500Y14400D03*
G01X3500Y13400D03*
G01X3500Y12400D03*
G01X3500Y11400D03*
G54D20*
G01X12700Y14900D03*
G01X12700Y13900D03*
G54D19*
G01X12700Y12900D03*
G54D12*
G01X10800Y19200D03*
G01X11300Y17700D03*
G01X4400Y13700D03*
G01X4300Y12700D03*
G01X13100Y15700D03*
G01X13400Y16000D03*
G01X9600Y11800D03*
G01X10800Y12700D03*
G01X4700Y5600D03*
G01X8200Y13200D03*
G01X7800Y13200D03*
G01X4300Y9200D03*
G01X4300Y5600D03*
G01X4700Y9200D03*
G01X7700Y2600D03*
G01X4300Y13200D03*
G01X5400Y19700D03*
G01X5400Y19200D03*
G01X14200Y13400D03*
G01X3600Y8100D03*
G01X7200Y11800D03*
G01X12200Y10400D03*
G01X14100Y17950D03*
G01X13200Y19350D03*
G01X12150Y19700D03*
G01X8400Y15850D03*
G01X12700Y18100D03*
M00*
M02*
