G04 ---------------------------- Layer name :TOP SOLDER LAYER*
G04 EasyEDA v5.6.15, Thu, 02 Aug 2018 18:58:32 GMT*
G04 5b09e127fb854e9390a9dbda6a4debf4*
G04 Gerber Generator version 0.2*
G04 Scale: 100 percent, Rotated: No, Reflected: No *
G04 Dimensions in inches *
G04 leading zeros omitted , absolute positions ,2 integer and 4 decimal *
%FSLAX24Y24*%
%MOIN*%
G90*
G70D02*

%ADD13R,0.110362X0.078866*%
%ADD14R,0.053276X0.043433*%
%ADD15R,0.165480X0.165480*%
%ADD16R,0.065870X0.053670*%
%ADD17R,0.074000X0.074000*%
%ADD18C,0.074000*%
%ADD19R,0.070000X0.070000*%
%ADD20C,0.070000*%
%ADD21C,0.082000*%

%LPD*%
G54D13*
G01X1800Y17900D03*
G01X1800Y16717D03*
G54D17*
G01X2100Y700D03*
G54D18*
G01X3100Y700D03*
G01X4100Y700D03*
G01X5100Y700D03*
G01X6100Y700D03*
G54D14*
G01X4771Y20200D03*
G01X4771Y19700D03*
G01X4771Y19200D03*
G01X4771Y18700D03*
G01X4771Y18200D03*
G01X4771Y17700D03*
G01X4771Y17200D03*
G01X4771Y16700D03*
G01X4771Y16200D03*
G01X4771Y15700D03*
G01X4771Y15200D03*
G01X4771Y14700D03*
G01X4771Y14200D03*
G01X4771Y13700D03*
G01X4771Y13200D03*
G01X4771Y12700D03*
G01X4771Y12200D03*
G01X4771Y11700D03*
G01X4771Y11200D03*
G01X11640Y20199D03*
G01X11640Y19699D03*
G01X11640Y19199D03*
G01X11640Y18699D03*
G01X11640Y18199D03*
G01X11640Y17699D03*
G01X11640Y17199D03*
G01X11640Y16699D03*
G01X11640Y16199D03*
G01X11640Y15699D03*
G01X11640Y15199D03*
G01X11640Y14699D03*
G01X11640Y14199D03*
G01X11640Y13699D03*
G01X11640Y13199D03*
G01X11640Y12699D03*
G01X11640Y12200D03*
G01X11640Y11700D03*
G01X11640Y11200D03*
G54D15*
G01X7664Y17133D03*
G54D17*
G01X800Y9100D03*
G54D18*
G01X6900Y9100D03*
G01X800Y8100D03*
G01X800Y7100D03*
G01X800Y6100D03*
G01X800Y5100D03*
G01X800Y4100D03*
G01X800Y3100D03*
G01X800Y2100D03*
G01X6900Y8100D03*
G01X6900Y7100D03*
G01X6900Y6100D03*
G01X6900Y5100D03*
G01X6900Y4100D03*
G01X6900Y3100D03*
G01X6900Y2100D03*
G54D17*
G01X8900Y9100D03*
G54D18*
G01X15000Y9100D03*
G01X8900Y8100D03*
G01X8900Y7100D03*
G01X8900Y6100D03*
G01X8900Y5100D03*
G01X8900Y4100D03*
G01X8900Y3100D03*
G01X8900Y2100D03*
G01X15000Y8100D03*
G01X15000Y7100D03*
G01X15000Y6100D03*
G01X15000Y5100D03*
G01X15000Y4100D03*
G01X15000Y3100D03*
G01X15000Y2100D03*
G54D19*
G01X1000Y19600D03*
G54D20*
G01X2000Y19600D03*
G54D19*
G01X1200Y10600D03*
G54D20*
G01X1200Y11600D03*
G54D19*
G01X14000Y19600D03*
G54D20*
G01X15000Y19600D03*
G54D19*
G01X14600Y11600D03*
G54D20*
G01X14600Y10600D03*
G54D19*
G01X12500Y700D03*
G54D20*
G01X13500Y700D03*
G54D16*
G01X12636Y19722D03*
G01X12636Y18922D03*
G01X14639Y17051D03*
G01X14639Y17851D03*
G01X1576Y15163D03*
G01X1576Y14363D03*
G54D21*
G01X3500Y18400D03*
G01X3500Y17400D03*
G01X3500Y16400D03*
G01X3500Y15400D03*
G01X3500Y14400D03*
G01X3500Y13400D03*
G01X3500Y12400D03*
G01X3500Y11400D03*
G54D20*
G01X12700Y14900D03*
G01X12700Y13900D03*
G54D19*
G01X12700Y12900D03*
M00*
M02*
