G04 ---------------------------- Layer name :TOP LAYER*
G04 EasyEDA v5.6.15, Thu, 02 Aug 2018 18:58:32 GMT*
G04 c1dd2be7df344d0ea50767cdd4af59ce*
G04 Gerber Generator version 0.2*
G04 Scale: 100 percent, Rotated: No, Reflected: No *
G04 Dimensions in inches *
G04 leading zeros omitted , absolute positions ,2 integer and 4 decimal *
%FSLAX24Y24*%
%MOIN*%
G90*
G70D02*

%ADD10C,0.010000*%
%ADD11C,0.015000*%
%ADD12C,0.024400*%
%ADD13R,0.059276X0.035433*%
%ADD14R,0.157480X0.157480*%
%ADD15R,0.102362X0.070866*%
%ADD16R,0.066000X0.066000*%
%ADD17C,0.066000*%
%ADD18C,0.074000*%
%ADD19C,0.047000*%

%LPD*%
G54D11*
G01X1000Y19600D02*
G01X300Y18900D01*
G01X300Y6600D01*
G01X800Y6100D01*
G01X2000Y19600D02*
G01X600Y18200D01*
G01X600Y10100D01*
G01X1000Y9700D01*
G01X1700Y9700D01*
G01X2100Y9300D01*
G01X2100Y6000D01*
G01X1200Y5100D01*
G01X800Y5100D01*
G01X14700Y10600D02*
G01X14400Y10300D01*
G01X14400Y5400D01*
G01X13600Y4600D01*
G01X10400Y4600D01*
G01X8900Y3100D01*
G01X14700Y11600D02*
G01X14100Y11000D01*
G01X14100Y6100D01*
G01X13600Y5600D01*
G01X10400Y5600D01*
G01X8900Y4100D01*
G01X15100Y19600D02*
G01X15100Y19000D01*
G01X14600Y18500D01*
G01X14000Y18500D01*
G01X13400Y17900D01*
G01X13400Y16900D01*
G01X14000Y16300D01*
G01X14000Y15100D01*
G01X13800Y14900D01*
G01X13800Y7000D01*
G01X13400Y6600D01*
G01X10400Y6600D01*
G01X8900Y5100D01*
G01X14100Y19600D02*
G01X14100Y19000D01*
G01X13100Y18000D01*
G01X13100Y16800D01*
G01X13700Y16200D01*
G01X13700Y15200D01*
G01X13500Y15000D01*
G01X13500Y8100D01*
G01X13000Y7600D01*
G01X10400Y7600D01*
G01X8900Y6100D01*
G54D10*
G01X11710Y19200D02*
G01X10800Y19200D01*
G01X11300Y17700D02*
G01X11710Y17700D01*
G01X6900Y15700D02*
G01X6900Y15700D01*
G01X6900Y9100D01*
G01X6900Y8100D02*
G01X6450Y8550D01*
G01X6450Y15450D01*
G01X5700Y16200D01*
G01X4840Y16200D01*
G01X6900Y15700D02*
G01X6800Y15800D01*
G01X5900Y16700D01*
G01X4840Y16700D01*
G01X6900Y7100D02*
G01X6150Y7850D01*
G01X6150Y15250D01*
G01X5700Y15700D01*
G01X4840Y15700D01*
G01X6900Y5100D02*
G01X5900Y6100D01*
G01X5900Y15050D01*
G01X5750Y15200D01*
G01X4840Y15200D01*
G01X6900Y4100D02*
G01X6600Y4100D01*
G01X5600Y5100D01*
G01X5600Y14500D01*
G01X5400Y14700D01*
G01X4840Y14700D01*
G01X4841Y14200D02*
G01X5200Y14200D01*
G01X5300Y14100D01*
G01X5300Y4700D01*
G01X6900Y3100D01*
G01X4400Y13700D02*
G01X4841Y13700D01*
G01X4840Y12700D02*
G01X4300Y12700D01*
G01X11710Y15700D02*
G01X13100Y15700D01*
G01X13400Y16000D02*
G01X12300Y16000D01*
G01X12100Y16200D01*
G01X11710Y16200D01*
G01X11710Y16200D01*
G01X9600Y11800D02*
G01X9600Y16100D01*
G01X10200Y16700D01*
G01X11710Y16700D01*
G01X11710Y16700D01*
G01X10800Y12700D02*
G01X11710Y12700D01*
G01X11710Y12700D01*
G01X4700Y9200D02*
G01X4700Y5600D01*
G01X11710Y18200D02*
G01X11300Y18200D01*
G01X9100Y16000D01*
G01X9100Y14100D01*
G01X8200Y13200D01*
G01X11710Y18700D02*
G01X11400Y18700D01*
G01X8800Y16100D01*
G01X8800Y14200D01*
G01X7800Y13200D01*
G01X4300Y9200D02*
G01X4300Y5600D01*
G54D11*
G01X8900Y9100D02*
G01X9700Y8300D01*
G01X9700Y8000D01*
G01X9300Y7600D01*
G01X8700Y7600D01*
G01X8600Y7600D01*
G01X8100Y7100D01*
G01X8100Y2900D01*
G01X8300Y2700D01*
G01X8400Y2600D01*
G01X11300Y2600D01*
G01X12500Y1400D01*
G01X12500Y700D01*
G01X8900Y9100D02*
G01X11500Y9100D01*
G01X12700Y10300D01*
G01X12700Y12900D01*
G54D10*
G01X11710Y13700D02*
G01X10600Y13700D01*
G01X10300Y13400D01*
G01X10300Y10700D01*
G01X9900Y10300D01*
G01X8400Y10300D01*
G01X8000Y9900D01*
G01X8000Y7700D01*
G01X7600Y7300D01*
G01X7600Y6900D01*
G01X7300Y6600D01*
G01X6600Y6600D01*
G01X6400Y6400D01*
G01X6400Y5900D01*
G01X6700Y5600D01*
G01X7400Y5600D01*
G01X7700Y5300D01*
G01X7700Y2600D01*
G54D11*
G01X6900Y2100D02*
G01X8900Y2100D01*
G01X6900Y2100D02*
G01X900Y2100D01*
G01X13500Y700D02*
G01X13500Y1600D01*
G01X14000Y2100D01*
G01X15000Y2100D01*
G01X900Y7100D02*
G01X1100Y7100D01*
G01X1700Y6500D01*
G01X1700Y6200D01*
G01X1100Y5600D01*
G01X400Y5600D01*
G01X200Y5400D01*
G01X200Y2300D01*
G01X400Y2100D01*
G01X800Y2100D01*
G01X4300Y13200D02*
G01X4840Y13200D01*
G01X3500Y17400D02*
G01X3700Y17400D01*
G01X4100Y17000D01*
G01X4100Y13400D01*
G01X4300Y13200D01*
G01X3500Y17400D02*
G01X3500Y17500D01*
G01X4100Y18100D01*
G01X4100Y19900D01*
G01X4400Y20200D01*
G01X4840Y20200D01*
G01X4840Y20200D02*
G01X11710Y20200D01*
G01X11710Y20200D01*
G01X8900Y7100D02*
G01X9300Y7100D01*
G01X9900Y7700D01*
G01X10300Y8100D01*
G01X11200Y8100D01*
G01X13200Y10100D01*
G01X13200Y13900D01*
G01X12700Y13900D01*
G01X800Y2100D02*
G01X1800Y2100D01*
G01X2100Y1800D01*
G01X2100Y700D01*
G01X6900Y6100D02*
G01X7500Y6100D01*
G01X7700Y6300D01*
G01X7800Y6400D01*
G01X7800Y7200D01*
G01X8600Y8000D01*
G01X8900Y8100D01*
G01X8900Y8100D02*
G01X8200Y8800D01*
G01X8200Y9800D01*
G01X8500Y10100D01*
G01X11900Y10100D01*
G01X12200Y10400D01*
G01X5400Y19700D02*
G01X4841Y19700D01*
G01X1800Y17900D02*
G01X2300Y18400D01*
G01X3500Y18400D01*
G01X1800Y16717D02*
G01X2481Y17400D01*
G01X3500Y17400D01*
G01X5400Y19200D02*
G01X4840Y19200D01*
G01X1800Y17900D02*
G01X1000Y17900D01*
G01X900Y17800D01*
G01X900Y14500D01*
G01X1200Y14200D01*
G01X1480Y14200D01*
G01X1669Y14009D01*
G01X1669Y15009D02*
G01X1669Y16588D01*
G01X1800Y16717D01*
G01X1200Y11600D02*
G01X1300Y11600D01*
G01X2800Y10100D01*
G01X2800Y5100D01*
G01X800Y3100D01*
G01X1200Y10600D02*
G01X1500Y10600D01*
G01X2500Y9600D01*
G01X2500Y5800D01*
G01X800Y4100D01*
G01X1669Y14009D02*
G01X1669Y11830D01*
G01X2600Y10900D01*
G01X3600Y9900D01*
G01X3600Y8100D01*
G01X14730Y16690D02*
G01X14730Y13930D01*
G01X14200Y13400D01*
G54D10*
G01X7200Y12100D02*
G01X7200Y11800D01*
G01X7200Y15900D01*
G01X5900Y17200D01*
G01X5900Y18700D01*
G01X5400Y19200D01*
G01X11781Y19700D02*
G01X10600Y19700D01*
G01X9300Y18400D01*
G54D13*
G01X4771Y20200D03*
G01X4771Y19700D03*
G01X4771Y19200D03*
G01X4771Y18700D03*
G01X4771Y18200D03*
G01X4771Y17700D03*
G01X4771Y17200D03*
G01X4771Y16700D03*
G01X4771Y16200D03*
G01X4771Y15700D03*
G01X4771Y15200D03*
G01X4771Y14700D03*
G01X4771Y14200D03*
G01X4771Y13700D03*
G01X4771Y13200D03*
G01X4771Y12700D03*
G01X4771Y12200D03*
G01X4771Y11700D03*
G01X4771Y11200D03*
G01X11781Y20200D03*
G01X11781Y19700D03*
G01X11781Y19200D03*
G01X11781Y18700D03*
G01X11781Y18200D03*
G01X11781Y17700D03*
G01X11781Y17200D03*
G01X11781Y16700D03*
G01X11781Y16200D03*
G01X11781Y15700D03*
G01X11781Y15200D03*
G01X11781Y14700D03*
G01X11781Y14200D03*
G01X11781Y13700D03*
G01X11781Y13200D03*
G01X11781Y12700D03*
G01X11781Y12200D03*
G01X11781Y11700D03*
G01X11781Y11200D03*
G54D14*
G01X7734Y17132D03*
G54D15*
G01X1800Y17900D03*
G01X1800Y16717D03*
G54D16*
G01X800Y9100D03*
G54D17*
G01X6900Y9100D03*
G01X800Y8100D03*
G01X800Y7100D03*
G01X800Y6100D03*
G01X800Y5100D03*
G01X800Y4100D03*
G01X800Y3100D03*
G01X800Y2100D03*
G01X6900Y8100D03*
G01X6900Y7100D03*
G01X6900Y6100D03*
G01X6900Y5100D03*
G01X6900Y4100D03*
G01X6900Y3100D03*
G01X6900Y2100D03*
G54D16*
G01X8900Y9100D03*
G54D17*
G01X15000Y9100D03*
G01X8900Y8100D03*
G01X8900Y7100D03*
G01X8900Y6100D03*
G01X8900Y5100D03*
G01X8900Y4100D03*
G01X8900Y3100D03*
G01X8900Y2100D03*
G01X15000Y8100D03*
G01X15000Y7100D03*
G01X15000Y6100D03*
G01X15000Y5100D03*
G01X15000Y4100D03*
G01X15000Y3100D03*
G01X15000Y2100D03*
G54D16*
G01X1000Y19600D03*
G54D17*
G01X2000Y19600D03*
G54D16*
G01X1200Y10600D03*
G54D17*
G01X1200Y11600D03*
G54D16*
G01X14000Y19600D03*
G54D17*
G01X15000Y19600D03*
G54D16*
G01X14600Y11600D03*
G54D17*
G01X14600Y10600D03*
G54D16*
G01X12500Y700D03*
G54D17*
G01X13500Y700D03*
G54D18*
G01X12600Y19700D03*
G01X12600Y16700D03*
G54D19*
G01X14730Y16690D03*
G01X14730Y17690D03*
G01X1669Y15009D03*
G01X1669Y14009D03*
G54D17*
G01X3500Y18400D03*
G01X3500Y17400D03*
G01X3500Y16400D03*
G01X3500Y15400D03*
G01X3500Y14400D03*
G01X3500Y13400D03*
G01X3500Y12400D03*
G01X3500Y11400D03*
G01X12700Y14900D03*
G01X12700Y13900D03*
G54D16*
G01X12700Y12900D03*
G01X2100Y700D03*
G54D17*
G01X3100Y700D03*
G01X4100Y700D03*
G01X5100Y700D03*
G01X6100Y700D03*
G54D12*
G01X10800Y19200D03*
G01X11300Y17700D03*
G01X4400Y13700D03*
G01X4300Y12700D03*
G01X13100Y15700D03*
G01X13400Y16000D03*
G01X9600Y11800D03*
G01X10800Y12700D03*
G01X4700Y5600D03*
G01X8200Y13200D03*
G01X7800Y13200D03*
G01X4300Y9200D03*
G01X4300Y5600D03*
G01X4700Y9200D03*
G01X7700Y2600D03*
G01X4300Y13200D03*
G01X5400Y19700D03*
G01X5400Y19200D03*
G01X14200Y13400D03*
G01X3600Y8100D03*
G01X7200Y11800D03*
G01X12200Y10400D03*
G01X9300Y18400D03*
M00*
M02*
