;PTH Drill file created by EasyEDA 
M48
INCH,LZ
;Holesize 1 = 0.012 INCH
T01C0.012
;Holesize 2 = 0.028 INCH
T02C0.028
;Holesize 3 = 0.035 INCH
T03C0.035
;Holesize 4 = 0.035 INCH
T04C0.035
%
G05
G90
T01
X010800Y019200
X011300Y017700
X004400Y013700
X004300Y012700
X013100Y015700
X013400Y016000
X009600Y011800
X010800Y012700
X004700Y005600
X008200Y013200
X007800Y013200
X004300Y009200
X004300Y005600
X004700Y009200
X007700Y002600
X004300Y013200
X005400Y019700
X005400Y019200
X014200Y013400
X003600Y008100
X007200Y011800
X012200Y010400
X009300Y018400
T02
X014730Y016690
X014730Y017690
X001669Y015009
X001669Y014009
T03
X000800Y009100
X006900Y009100
X000800Y008100
X000800Y007100
X000800Y006100
X000800Y005100
X000800Y004100
X000800Y003100
X000800Y002100
X006900Y008100
X006900Y007100
X006900Y006100
X006900Y005100
X006900Y004100
X006900Y003100
X006900Y002100
X008900Y009100
X015000Y009100
X008900Y008100
X008900Y007100
X008900Y006100
X008900Y005100
X008900Y004100
X008900Y003100
X008900Y002100
X015000Y008100
X015000Y007100
X015000Y006100
X015000Y005100
X015000Y004100
X015000Y003100
X015000Y002100
X001000Y019600
X002000Y019600
X001200Y010600
X001200Y011600
X014000Y019600
X015000Y019600
X014600Y011600
X014600Y010600
X012500Y000700
X013500Y000700
X003500Y018400
X003500Y017400
X003500Y016400
X003500Y015400
X003500Y014400
X003500Y013400
X003500Y012400
X003500Y011400
X012700Y014900
X012700Y013900
X012700Y012900
X002100Y000700
X003100Y000700
X004100Y000700
X005100Y000700
X006100Y000700
T04
X012600Y019700
X012600Y016700
M30
