G04 ---------------------------- Layer name :TOP PASTER LAYER*
G04 EasyEDA v5.6.15, Thu, 02 Aug 2018 18:58:32 GMT*
G04 c1dd2be7df344d0ea50767cdd4af59ce*
G04 Gerber Generator version 0.2*
G04 Scale: 100 percent, Rotated: No, Reflected: No *
G04 Dimensions in inches *
G04 leading zeros omitted , absolute positions ,2 integer and 4 decimal *
%FSLAX24Y24*%
%MOIN*%
G90*
G70D02*

%ADD13R,0.059276X0.035433*%
%ADD14R,0.157480X0.157480*%
%ADD15R,0.102362X0.070866*%

%LPD*%
G54D13*
G01X4771Y20200D03*
G01X4771Y19700D03*
G01X4771Y19200D03*
G01X4771Y18700D03*
G01X4771Y18200D03*
G01X4771Y17700D03*
G01X4771Y17200D03*
G01X4771Y16700D03*
G01X4771Y16200D03*
G01X4771Y15700D03*
G01X4771Y15200D03*
G01X4771Y14700D03*
G01X4771Y14200D03*
G01X4771Y13700D03*
G01X4771Y13200D03*
G01X4771Y12700D03*
G01X4771Y12200D03*
G01X4771Y11700D03*
G01X4771Y11200D03*
G01X11781Y20200D03*
G01X11781Y19700D03*
G01X11781Y19200D03*
G01X11781Y18700D03*
G01X11781Y18200D03*
G01X11781Y17700D03*
G01X11781Y17200D03*
G01X11781Y16700D03*
G01X11781Y16200D03*
G01X11781Y15700D03*
G01X11781Y15200D03*
G01X11781Y14700D03*
G01X11781Y14200D03*
G01X11781Y13700D03*
G01X11781Y13200D03*
G01X11781Y12700D03*
G01X11781Y12200D03*
G01X11781Y11700D03*
G01X11781Y11200D03*
G54D14*
G01X7734Y17132D03*
G54D15*
G01X1800Y17900D03*
G01X1800Y16717D03*
M00*
M02*
